<svg width="444" height="362" viewBox="0 0 444 362" fill="none" xmlns="http://www.w3.org/2000/svg">
<path d="M69.9668 362C31.4951 361.746 0.25 330.341 0.25 291.993C0.25 258.669 23.2363 230.813 54.5293 223.731C54.0205 220.931 53.7646 218.074 53.7646 215.171C53.7646 188.919 75.1231 167.561 101.375 167.561C110.096 167.561 118.453 169.888 125.745 174.249C145.727 147.826 176.558 132.352 210.205 132.352C262.793 132.352 307.121 171.09 314.986 222.136C351.385 224.588 380.25 254.983 380.25 291.993C380.25 330.215 349.154 361.618 310.932 361.994L69.9668 362ZM101.375 187.561C86.1504 187.561 73.7646 199.947 73.7646 215.171C73.7646 219.514 74.751 223.677 76.6953 227.545C78.2217 230.583 78.1016 234.188 76.375 237.116C74.6484 240.044 71.5518 241.895 68.1553 242.029C41.293 243.09 20.25 265.037 20.25 291.993C20.25 319.386 42.582 341.819 70.0322 342L310.833 341.995C338.037 341.726 360.25 319.295 360.25 291.993C360.25 264.414 337.812 241.976 310.233 241.976C309.206 241.976 308.089 242.021 306.719 242.116C304.074 242.298 301.444 241.419 299.441 239.667C297.438 237.914 296.216 235.436 296.046 232.78C293.152 187.68 255.446 152.352 210.205 152.352C179.866 152.352 152.347 167.86 136.591 193.838C134.996 196.468 132.279 198.217 129.226 198.582C126.171 198.944 123.12 197.885 120.95 195.704C115.729 190.453 108.776 187.561 101.375 187.561Z" fill="#fff"/>
<path d="M369.24 237.167C364.707 237.167 360.602 234.063 359.516 229.459C358.248 224.084 361.578 218.699 366.954 217.432C385.292 213.107 401.909 203.695 415.04 190.393C392.098 184.939 371.191 172.795 354.89 155.21C334.269 132.966 322.912 104.002 322.912 73.6528C322.912 54.9946 327.161 36.8994 335.314 20.4614C312.31 22.4145 290.844 32.186 274.134 48.4668C255.392 66.7266 244.673 91.1636 243.951 117.276C243.798 122.797 239.213 127.187 233.679 126.996C228.158 126.844 223.807 122.245 223.959 116.724C224.825 85.3809 237.687 56.0527 260.177 34.1416C282.709 12.188 312.447 0.0976562 343.912 0.0976562C347.118 0.0976562 350.402 0.230961 353.671 0.494141C357.248 0.781741 360.396 2.96435 361.922 6.21289C363.446 9.46143 363.113 13.2778 361.05 16.2134C349.184 33.0908 342.912 52.9526 342.912 73.6528C342.912 98.9439 352.375 123.079 369.557 141.613C386.647 160.049 409.803 171.31 434.759 173.321C438.335 173.609 441.483 175.792 443.008 179.04C444.532 182.289 444.199 186.105 442.136 189.04C425.172 213.167 400.102 230.164 371.544 236.897C370.772 237.08 370 237.167 369.24 237.167Z" fill="#fff"/>
</svg>
