<svg width="380" height="231" viewBox="0 0 380 231" fill="none" xmlns="http://www.w3.org/2000/svg">
<path d="M69.7168 230.193C31.2451 229.939 0 198.535 0 160.187C0 126.862 22.9868 99.0068 54.2788 91.9238C53.77 89.1245 53.5146 86.2681 53.5146 83.3647C53.5146 57.1123 74.8726 35.7544 101.125 35.7544C109.845 35.7544 118.203 38.0815 125.495 42.4424C145.476 16.0195 176.307 0.544922 209.956 0.544922C262.544 0.544922 306.871 39.2832 314.736 90.3291C351.134 92.7813 380 123.177 380 160.187C380 198.409 348.904 229.811 310.682 230.188L69.7168 230.193ZM101.125 55.7544C85.9009 55.7544 73.5146 68.1401 73.5146 83.3647C73.5146 87.708 74.5005 91.8716 76.4448 95.7388C77.9717 98.7759 77.8511 102.381 76.1245 105.31C74.398 108.238 71.3018 110.088 67.9048 110.223C41.0425 111.283 20 133.23 20 160.187C20 187.579 42.3325 210.012 69.7827 210.193L310.583 210.188C337.788 209.919 360 187.489 360 160.187C360 132.607 337.562 110.169 309.983 110.169C308.956 110.169 307.838 110.214 306.468 110.309C303.814 110.494 301.194 109.612 299.191 107.86C297.188 106.107 295.966 103.629 295.795 100.973C292.902 55.873 255.197 20.5449 209.956 20.5449C179.616 20.5449 152.097 36.0537 136.342 62.0308C134.747 64.6606 132.03 66.4102 128.976 66.7749C125.923 67.1353 122.87 66.0781 120.701 63.897C115.479 58.646 108.527 55.7544 101.125 55.7544Z" fill="#fff"/>
</svg>
