<?xml version="1.0" standalone="no"?>
<!DOCTYPE svg PUBLIC "-//W3C//DTD SVG 20010904//EN"
 "http://www.w3.org/TR/2001/REC-SVG-20010904/DTD/svg10.dtd">
<svg version="1.0" xmlns="http://www.w3.org/2000/svg"
 width="15.000000px" height="15.000000px" viewBox="0 0 900.000000 864.000000"
 preserveAspectRatio="xMidYMid meet">
<metadata>
Created by potrace 1.10, written by Peter Selinger 2001-2011
</metadata>
<g transform="translate(0.000000,864.000000) scale(0.100000,-0.100000)"
fill="#ffffff" stroke="none">
<path d="M4155 8469 c-33 -5 -100 -13 -150 -18 -49 -5 -117 -14 -150 -21 -128
-24 -212 -41 -255 -52 -25 -6 -63 -14 -85 -19 -22 -4 -71 -17 -110 -29 -38
-11 -83 -25 -100 -30 -41 -11 -93 -30 -133 -46 -18 -8 -39 -14 -47 -14 -8 0
-29 -6 -47 -14 -18 -8 -53 -22 -78 -31 -45 -17 -60 -24 -155 -66 -76 -34 -285
-137 -332 -164 -24 -14 -61 -35 -82 -47 -174 -100 -396 -253 -540 -373 -95
-79 -180 -153 -203 -177 -15 -15 -36 -28 -46 -28 -13 0 -174 154 -443 423
-463 461 -482 477 -588 477 -85 0 -184 -56 -233 -133 l-33 -52 0 -1315 c0
-1293 0 -1316 20 -1350 31 -55 76 -100 127 -126 l47 -24 1299 0 c1285 0 1300
0 1345 20 79 35 142 123 161 223 7 36 -16 124 -42 166 -8 14 -209 221 -446
459 -247 248 -431 440 -431 450 0 20 101 111 230 209 83 62 213 153 220 153 2
0 23 13 47 29 46 31 164 96 238 131 25 12 52 26 60 31 8 5 22 12 30 15 8 3 49
19 90 36 41 17 91 36 110 43 19 7 53 20 75 28 52 19 182 56 320 91 280 70 757
99 1009 61 55 -8 114 -15 133 -15 19 0 62 -6 96 -14 34 -8 98 -22 142 -31 44
-10 103 -24 130 -32 139 -39 162 -46 193 -59 18 -8 39 -14 47 -14 7 0 26 -6
42 -14 15 -8 48 -22 73 -32 39 -15 157 -68 240 -108 63 -31 190 -102 244 -137
32 -22 60 -39 63 -39 8 0 250 -185 318 -244 99 -85 295 -284 363 -369 31 -40
59 -74 62 -77 31 -28 171 -234 241 -355 54 -92 160 -315 204 -425 16 -42 23
-61 55 -150 6 -19 16 -51 20 -70 5 -19 18 -66 29 -105 12 -38 24 -83 27 -100
3 -16 12 -57 19 -90 48 -206 71 -545 55 -791 -14 -229 -37 -378 -87 -579 -33
-133 -97 -337 -119 -377 -8 -14 -14 -31 -14 -36 0 -27 -154 -338 -211 -427
-10 -16 -22 -37 -26 -45 -19 -39 -206 -297 -273 -375 -102 -119 -224 -242
-325 -327 -33 -28 -62 -54 -65 -58 -15 -19 -313 -236 -350 -253 -8 -4 -28 -16
-45 -26 -95 -61 -330 -175 -465 -226 -25 -9 -60 -23 -78 -31 -18 -8 -39 -14
-47 -14 -8 0 -29 -6 -47 -14 -74 -31 -280 -82 -473 -116 -33 -6 -150 -18 -260
-26 -335 -24 -678 4 -980 82 -108 28 -169 46 -203 60 -18 8 -39 14 -47 14 -8
0 -29 6 -47 14 -18 8 -53 22 -78 31 -108 41 -248 106 -350 162 -30 17 -74 41
-98 54 -86 48 -140 83 -262 174 -52 39 -102 74 -110 78 -8 4 -31 17 -50 28
-76 47 -186 60 -290 35 -95 -23 -138 -54 -305 -223 -160 -161 -179 -197 -183
-349 -3 -106 -2 -113 27 -175 17 -36 52 -87 78 -114 60 -60 267 -216 384 -290
279 -174 550 -311 789 -400 142 -52 177 -65 215 -75 17 -5 44 -13 60 -18 28
-10 70 -22 185 -53 25 -7 63 -15 85 -19 22 -4 60 -12 85 -18 219 -53 584 -92
860 -92 279 0 693 44 900 95 30 8 69 16 85 19 17 3 62 15 100 27 39 11 86 24
105 28 19 5 46 13 60 19 14 5 54 19 90 31 117 36 169 56 233 87 16 8 33 14 38
14 5 0 39 14 76 31 38 16 84 37 103 46 19 8 42 19 50 24 8 4 56 28 105 53 50
25 113 59 140 76 28 16 59 34 70 40 102 54 465 314 560 400 22 20 67 61 100
90 120 108 249 237 333 335 48 55 92 105 98 110 10 9 85 104 129 163 83 113
125 172 125 177 0 2 19 33 43 68 24 34 46 69 50 77 4 8 16 29 26 45 70 109
158 282 251 490 23 53 79 191 95 235 28 78 37 106 45 135 5 17 13 44 18 60 17
50 48 165 86 323 31 127 71 396 86 587 25 320 3 747 -55 1055 -8 41 -16 89
-18 105 -6 44 -31 142 -73 290 -18 64 -109 339 -127 385 -13 33 -21 54 -52
125 -27 63 -177 363 -210 420 -19 33 -39 69 -45 80 -6 11 -18 32 -28 47 -9 15
-36 57 -60 95 -46 72 -153 222 -205 287 -18 21 -42 52 -53 68 -44 59 -163 188
-304 328 -187 185 -236 229 -429 379 -78 60 -314 220 -356 241 -11 5 -29 16
-40 22 -107 69 -365 198 -515 258 -30 12 -63 26 -72 31 -22 11 -94 38 -133 49
-16 4 -46 14 -65 21 -19 6 -51 17 -70 24 -19 7 -62 20 -95 29 -33 10 -80 24
-105 32 -25 8 -54 14 -66 14 -11 0 -40 6 -65 14 -24 8 -82 21 -129 30 -47 10
-107 22 -135 27 -27 6 -95 15 -150 20 -55 5 -131 13 -170 19 -85 11 -666 11
-750 -1z"/>
<path d="M4315 6441 c-106 -19 -221 -110 -276 -219 l-34 -67 0 -1205 0 -1204
100 -78 c55 -43 161 -126 235 -183 74 -58 196 -152 270 -210 568 -442 512
-402 623 -449 52 -22 184 -21 253 2 99 32 209 141 355 351 55 79 89 174 89
250 0 54 -26 143 -57 194 -55 88 -117 141 -655 551 -57 43 -111 87 -120 98
-17 19 -18 78 -18 927 -1 944 -1 938 -43 1032 -28 63 -109 142 -184 179 l-68
34 -215 2 c-118 2 -233 -1 -255 -5z"/>
</g>
</svg>
