<svg width="460" height="420" viewBox="0 0 460 420" fill="none" xmlns="http://www.w3.org/2000/svg">
<path d="M326.798 270C323.889 270 321.006 268.738 319.029 266.304C315.548 262.017 316.201 255.719 320.488 252.237C339.305 236.957 350.097 214.307 350.097 190.098C350.097 145.985 314.21 110.098 270.097 110.098C229.294 110.098 195.116 140.626 190.596 181.109C189.983 186.598 185.039 190.548 179.548 189.938C174.06 189.325 170.107 184.378 170.72 178.89C176.372 128.27 219.094 90.0977 270.097 90.0977C325.238 90.0977 370.097 134.958 370.097 190.098C370.097 220.359 356.611 248.667 333.095 267.763C331.242 269.268 329.012 270 326.798 270Z" fill="#fff"/>
<path d="M270 74C264.478 74 260 69.523 260 64V10C260 4.47705 264.478 0 270 0C275.522 0 280 4.47705 280 10V64C280 69.523 275.522 74 270 74Z" fill="#fff"/>
<path d="M144 200H90C84.477 200 80 195.523 80 190C80 184.477 84.477 180 90 180H144C149.523 180 154 184.477 154 190C154 195.523 149.523 200 144 200Z" fill="#fff"/>
<path d="M450 200H396C390.478 200 386 195.523 386 190C386 184.477 390.478 180 396 180H450C455.522 180 460 184.477 460 190C460 195.523 455.522 200 450 200Z" fill="#fff"/>
<path d="M358.542 111.458C355.983 111.458 353.424 110.482 351.471 108.53C347.566 104.624 347.566 98.2922 351.471 94.387L390.208 55.6497C394.114 51.7444 400.445 51.7444 404.351 55.6497C408.256 59.5549 408.256 65.887 404.351 69.7922L365.614 108.53C363.66 110.482 361.102 111.458 358.542 111.458Z" fill="#fff"/>
<path d="M181.458 111.458C178.899 111.458 176.339 110.482 174.387 108.53L135.649 69.7922C131.745 65.887 131.745 59.5549 135.649 55.6497C139.555 51.7444 145.887 51.7444 149.792 55.6497L188.529 94.387C192.434 98.2922 192.434 104.624 188.529 108.53C186.577 110.482 184.017 111.458 181.458 111.458Z" fill="#fff"/>
<path d="M397.28 327.28C394.72 327.28 392.161 326.303 390.208 324.351L351.471 285.614C347.566 281.708 347.566 275.376 351.471 271.471C355.377 267.566 361.707 267.566 365.614 271.471L404.351 310.208C408.256 314.114 408.256 320.446 404.351 324.351C402.398 326.303 399.839 327.28 397.28 327.28Z" fill="#fff"/>
<path d="M69.9668 420C31.4951 419.746 0.25 388.341 0.25 349.993C0.25 316.669 23.2368 288.813 54.5288 281.73C54.02 278.931 53.7646 276.075 53.7646 273.171C53.7646 246.919 75.1226 225.561 101.375 225.561C110.095 225.561 118.453 227.888 125.745 232.249C145.726 205.826 176.557 190.352 210.206 190.352C262.794 190.352 307.121 229.09 314.986 280.136C351.385 282.588 380.25 312.983 380.25 349.993C380.25 388.215 349.154 419.618 310.932 419.994L69.9668 420ZM101.375 245.561C86.1509 245.561 73.7646 257.947 73.7646 273.171C73.7646 277.515 74.7505 281.678 76.6948 285.545C78.2217 288.583 78.1011 292.188 76.3745 295.116C74.648 298.044 71.5518 299.895 68.1548 300.029C41.2925 301.09 20.25 323.037 20.25 349.993C20.25 377.386 42.5825 399.819 70.0327 400L310.833 399.995C338.037 399.726 360.25 377.295 360.25 349.993C360.25 322.414 337.812 299.976 310.233 299.976C309.206 299.976 308.089 300.021 306.719 300.116C304.072 300.297 301.444 299.419 299.441 297.667C297.438 295.914 296.216 293.436 296.046 290.78C293.152 245.68 255.447 210.352 210.206 210.352C179.866 210.352 152.347 225.86 136.592 251.837C134.997 254.467 132.28 256.217 129.226 256.582C126.172 256.942 123.12 255.885 120.951 253.704C115.729 248.453 108.777 245.561 101.375 245.561Z" fill="#fff"/>
</svg>
