<svg width="416" height="473" viewBox="0 0 416 473" fill="none" xmlns="http://www.w3.org/2000/svg">
<path d="M301.532 233.5C299.017 233.5 296.506 232.507 294.638 230.538C291.027 226.731 291.186 220.719 294.992 217.108C309.482 203.362 317.463 184.797 317.463 164.833C317.463 125.111 285.147 92.7949 245.425 92.7949C210.536 92.7949 180.724 117.668 174.536 151.938C173.604 157.1 168.659 160.529 163.5 159.598C158.336 158.666 154.906 153.725 155.839 148.562C163.66 105.239 201.337 73.7949 245.425 73.7949C295.623 73.7949 336.463 114.634 336.463 164.833C336.463 190.062 326.379 213.523 308.068 230.892C306.232 232.635 303.879 233.5 301.532 233.5Z" fill="#fff"/>
<path d="M217.268 65.8276C212.898 65.8276 208.965 62.7949 207.996 58.3506L197.977 12.4306C196.858 7.30465 200.107 2.24264 205.233 1.12399C210.369 0.00436042 215.423 3.25534 216.54 8.38083L226.558 54.3007C227.678 59.4267 224.429 64.4887 219.303 65.6074C218.62 65.7563 217.938 65.8276 217.268 65.8276Z" fill="#fff"/>
<path d="M356.9 154.605C352.53 154.605 348.597 151.573 347.628 147.128C346.509 142.002 349.758 136.94 354.884 135.822L403.734 125.164C408.871 124.044 413.924 127.295 415.041 132.421C416.16 137.547 412.911 142.609 407.785 143.728L358.934 154.385C358.252 154.534 357.57 154.605 356.9 154.605Z" fill="#fff"/>
<path d="M305.773 81.857C304.016 81.857 302.239 81.3707 300.65 80.3512C296.235 77.5172 294.952 71.6402 297.786 67.2247L324.595 25.4557C327.429 21.0401 333.305 19.7584 337.722 22.5919C342.137 25.4259 343.419 31.3028 340.585 35.7184L313.777 77.4874C311.962 80.3146 308.9 81.857 305.773 81.857Z" fill="#fff"/>
<path d="M149.026 116.054C147.269 116.054 145.492 115.568 143.904 114.548L102.134 87.7403C97.7181 84.9064 96.4358 79.0294 99.2698 74.6139C102.104 70.1984 107.981 68.9166 112.396 71.7501L154.165 98.5582C158.581 101.392 159.864 107.269 157.03 111.685C155.215 114.512 152.153 116.054 149.026 116.054Z" fill="#fff"/>
<path d="M380.762 265.626C379.005 265.626 377.228 265.14 375.639 264.12L333.87 237.312C329.455 234.478 328.173 228.601 331.007 224.186C333.841 219.77 339.717 218.487 344.134 221.322L385.903 248.13C390.318 250.964 391.6 256.841 388.766 261.257C386.952 264.084 383.889 265.626 380.762 265.626Z" fill="#fff"/>
<path d="M64.1104 373.56C29.0117 373.329 0.507812 344.68 0.507812 309.695C0.507812 279.44 21.2783 254.126 49.6172 247.516C49.2002 245.086 48.9912 242.611 48.9912 240.097C48.9912 216.07 68.5381 196.522 92.5654 196.522C100.411 196.522 107.938 198.581 114.53 202.443C132.724 178.585 160.673 164.623 191.164 164.623C238.908 164.623 279.171 199.703 286.474 245.992C319.515 248.399 345.661 276.051 345.661 309.695C345.661 344.564 317.293 373.211 282.425 373.555L64.1104 373.56ZM92.5654 215.522C79.0156 215.522 67.9912 226.546 67.9912 240.097C67.9912 243.963 68.8682 247.668 70.5986 251.108C72.0498 253.994 71.9355 257.419 70.2949 260.201C68.6553 262.983 65.7139 264.742 62.4863 264.869C38.3857 265.821 19.5078 285.511 19.5078 309.695C19.5078 334.271 39.5449 354.398 64.1729 354.56L282.331 354.556C306.732 354.315 326.661 334.19 326.661 309.695C326.661 284.952 306.53 264.822 281.787 264.822C280.861 264.822 279.859 264.861 278.632 264.946C276.102 265.126 273.621 264.283 271.72 262.619C269.816 260.955 268.656 258.6 268.494 256.077C265.888 215.449 231.921 183.623 191.164 183.623C163.833 183.623 139.041 197.595 124.848 220.997C123.332 223.495 120.752 225.157 117.851 225.503C114.947 225.848 112.049 224.841 109.989 222.77C105.341 218.096 99.1523 215.522 92.5654 215.522Z" fill="#fff"/>
<path d="M147.452 472.821C145.019 472.821 142.587 471.893 140.731 470.036C137.023 466.324 137.026 460.309 140.738 456.601L163.426 433.936C167.137 430.229 173.152 430.231 176.86 433.943C180.568 437.654 180.565 443.67 176.853 447.378L154.166 470.042C152.311 471.895 149.882 472.821 147.452 472.821Z" fill="#fff"/>
<path d="M68.6316 421.181C66.199 421.181 63.7664 420.253 61.9109 418.395C58.2029 414.683 58.2058 408.669 61.9177 404.96L76.2253 390.667C79.9363 386.96 85.9509 386.963 89.6599 390.674C93.3679 394.386 93.365 400.401 89.6531 404.109L75.3455 418.402C73.491 420.255 71.0613 421.181 68.6316 421.181Z" fill="#fff"/>
<path d="M194.563 421.181C192.131 421.181 189.698 420.253 187.843 418.396C184.135 414.684 184.137 408.669 187.849 404.961L202.156 390.668C205.868 386.961 211.883 386.962 215.591 390.674C219.299 394.386 219.296 400.401 215.584 404.109L201.277 418.402C199.423 420.255 196.993 421.181 194.563 421.181Z" fill="#fff"/>
<path d="M235.333 443.979C232.9 443.979 230.467 443.05 228.611 441.192C224.903 437.48 224.907 431.465 228.62 427.757L265.758 390.667C269.47 386.959 275.484 386.963 279.193 390.675C282.901 394.388 282.897 400.403 279.184 404.11L242.046 441.201C240.192 443.053 237.763 443.979 235.333 443.979Z" fill="#fff"/>
<path d="M98.5291 453.944C96.0964 453.944 93.6638 453.016 91.8084 451.159C88.1003 447.447 88.1033 441.432 91.8152 437.724L138.919 390.668C142.631 386.96 148.645 386.963 152.353 390.674C156.061 394.386 156.058 400.401 152.346 404.109L105.243 451.165C103.388 453.018 100.959 453.944 98.5291 453.944Z" fill="#fff"/>
</svg>
