<svg width="411" height="440" viewBox="0 0 411 440" fill="none" xmlns="http://www.w3.org/2000/svg">
<path d="M65.0684 335.616C29.2168 335.379 0.102539 306.116 0.102539 270.382C0.102539 239.592 21.1641 213.812 49.9473 206.945C49.5566 204.561 49.3604 202.134 49.3604 199.672C49.3604 175.069 69.376 155.053 93.9785 155.053C101.908 155.053 109.518 157.106 116.205 160.961C134.758 136.785 163.168 122.645 194.152 122.645C242.736 122.645 283.723 158.275 291.285 205.334C324.902 207.927 351.465 236.111 351.465 270.382C351.465 305.999 322.489 335.259 286.874 335.611L65.0684 335.616ZM93.9785 175.053C80.4043 175.053 69.3604 186.097 69.3604 199.672C69.3604 203.544 70.2393 207.256 71.9727 210.705C73.5 213.742 73.3789 217.347 71.6523 220.275C69.9258 223.204 66.8291 225.054 63.4326 225.188C39.1357 226.147 20.1025 246 20.1025 270.382C20.1025 295.161 40.3037 315.452 65.1348 315.616L286.775 315.611C311.373 315.369 331.465 295.079 331.465 270.382C331.465 245.435 311.169 225.14 286.223 225.14C285.295 225.14 284.284 225.18 283.042 225.266C280.377 225.452 277.768 224.568 275.766 222.816C273.763 221.064 272.541 218.586 272.37 215.93C269.733 174.835 235.376 142.645 194.152 142.645C166.507 142.645 141.431 156.776 127.073 180.448C125.479 183.078 122.762 184.827 119.708 185.191C116.655 185.553 113.603 184.495 111.433 182.313C106.777 177.631 100.578 175.053 93.9785 175.053Z" fill="#fff"/>
<path d="M347.247 218.884C342.98 218.884 339.029 216.133 337.699 211.844C336.063 206.569 339.013 200.966 344.287 199.33C358.106 195.044 370.771 187.413 381.105 177.294C360.387 172.082 341.522 160.963 326.743 145.02C307.626 124.398 297.098 97.5459 297.098 69.4097C297.098 52.5937 300.82 36.2725 307.972 21.375C288.222 23.3691 269.691 31.7217 255.023 45.3926C238.168 61.1025 227.941 82.3589 226.23 105.246C225.818 110.753 221.006 114.893 215.512 114.472C210.005 114.06 205.874 109.262 206.286 103.754C208.374 75.835 220.84 49.9126 241.387 30.7617C262.041 11.5117 288.974 0.910156 317.223 0.910156C320.199 0.910156 323.243 1.03369 326.271 1.27783C329.847 1.5664 332.995 3.74902 334.52 6.99707C336.044 10.2456 335.711 14.0615 333.647 16.9971C322.82 32.3965 317.098 50.5205 317.098 69.4097C317.098 92.4873 325.732 114.511 341.41 131.423C357.005 148.246 378.135 158.521 400.906 160.356C404.482 160.645 407.631 162.827 409.155 166.075C410.68 169.324 410.347 173.14 408.283 176.075C394.167 196.153 373.544 211.196 350.213 218.433C349.227 218.738 348.228 218.884 347.247 218.884Z" fill="#fff"/>
<path d="M155.265 439.127C152.704 439.127 150.143 438.149 148.191 436.194C144.288 432.287 144.291 425.955 148.198 422.052L171.248 399.026C175.155 395.123 181.488 395.126 185.389 399.033C189.293 402.94 189.29 409.272 185.383 413.175L162.333 436.201C160.381 438.151 157.823 439.127 155.265 439.127Z" fill="#fff"/>
<path d="M75.1854 386.661C72.6239 386.661 70.0634 385.684 68.1102 383.729C64.2079 379.822 64.2108 373.49 68.118 369.586L82.6542 355.066C86.5614 351.162 92.8934 351.166 96.7968 355.073C100.699 358.981 100.696 365.313 96.7889 369.216L82.2528 383.737C80.3007 385.687 77.743 386.661 75.1854 386.661Z" fill="#fff"/>
<path d="M203.129 386.661C200.567 386.661 198.008 385.683 196.054 383.728C192.151 379.821 192.154 373.49 196.061 369.587L210.596 355.066C214.504 351.163 220.835 351.166 224.738 355.073C228.641 358.98 228.638 365.311 224.731 369.215L210.196 383.735C208.244 385.685 205.686 386.661 203.129 386.661Z" fill="#fff"/>
<path d="M244.549 409.824C241.987 409.824 239.426 408.846 237.474 406.89C233.57 402.983 233.574 396.651 237.483 392.749L275.214 355.066C279.122 351.162 285.455 351.167 289.356 355.075C293.259 358.982 293.255 365.314 289.347 369.216L251.615 406.899C249.663 408.849 247.106 409.824 244.549 409.824Z" fill="#fff"/>
<path d="M105.56 419.948C102.999 419.948 100.438 418.97 98.4861 417.015C94.5828 413.108 94.5857 406.776 98.4929 402.874L146.349 355.066C150.257 351.163 156.59 351.166 160.491 355.073C164.394 358.98 164.391 365.312 160.484 369.215L112.628 417.022C110.676 418.972 108.118 419.948 105.56 419.948Z" fill="#fff"/>
</svg>
