<svg width="381" height="348" viewBox="0 0 381 348" fill="#fff" xmlns="http://www.w3.org/2000/svg">
<path d="M114.711 265.735C111.266 265.735 107.914 263.954 106.058 260.761C103.28 255.988 104.899 249.867 109.673 247.089L170.179 211.89C174.952 209.111 181.074 210.731 183.851 215.505C186.629 220.279 185.01 226.4 180.236 229.177L119.73 264.377C118.148 265.297 116.418 265.735 114.711 265.735Z"/>
<path d="M175.707 264.83C174.096 264.83 172.461 264.44 170.946 263.617L109.423 230.227C104.569 227.592 102.769 221.522 105.404 216.667C108.039 211.814 114.109 210.016 118.963 212.649L180.486 246.039C185.34 248.674 187.139 254.744 184.505 259.599C182.693 262.937 179.256 264.83 175.707 264.83Z"/>
<path d="M144.937 283H144.932C139.409 283 134.934 278.29 134.937 272.768L134.972 203.97C134.975 198.448 139.452 194 144.972 194H144.977C150.5 194 154.975 198.343 154.972 203.866L154.937 272.847C154.934 278.368 150.457 283 144.937 283Z"/>
<path d="M209.711 231.734C206.266 231.734 202.914 229.953 201.058 226.761C198.28 221.987 199.899 215.866 204.673 213.089L265.179 177.889C269.951 175.11 276.074 176.729 278.851 181.505C281.629 186.278 280.01 192.399 275.236 195.177L214.73 230.376C213.148 231.297 211.418 231.734 209.711 231.734Z"/>
<path d="M270.707 230.83C269.096 230.83 267.461 230.439 265.946 229.617L204.423 196.226C199.569 193.592 197.769 187.521 200.404 182.667C203.039 177.813 209.109 176.014 213.963 178.648L275.486 212.039C280.34 214.674 282.139 220.744 279.505 225.598C277.693 228.936 274.256 230.83 270.707 230.83Z"/>
<path d="M239.937 249H239.932C234.409 249 229.934 244.29 229.937 238.768L229.972 169.97C229.975 164.448 234.452 160 239.972 160H239.977C245.5 160 249.975 164.343 249.972 169.866L249.937 238.847C249.934 244.368 245.457 249 239.937 249Z"/>
<path d="M127.958 347.939C125.397 347.939 122.836 346.962 120.883 345.007C116.98 341.099 116.983 334.767 120.891 330.865L145.933 305.848C149.84 301.945 156.171 301.948 160.075 305.855C163.978 309.762 163.975 316.094 160.067 319.997L135.025 345.013C133.073 346.964 130.515 347.939 127.958 347.939Z"/>
<path d="M78.958 314.94C76.397 314.94 73.8364 313.962 71.8833 312.007C67.98 308.1 67.9834 301.769 71.8906 297.866L87.6826 282.089C91.5898 278.187 97.9214 278.189 101.825 282.096C105.728 286.003 105.725 292.334 101.817 296.238L86.0254 312.014C84.0732 313.964 81.5156 314.94 78.958 314.94Z"/>
<path d="M193.958 299.94C191.397 299.94 188.836 298.962 186.883 297.007C182.98 293.1 182.983 286.769 186.891 282.866L202.683 267.089C206.59 263.187 212.922 263.189 216.825 267.096C220.728 271.003 220.725 277.334 216.817 281.238L201.025 297.014C199.073 298.964 196.516 299.94 193.958 299.94Z"/>
<path d="M234.958 317.939C232.397 317.939 229.836 316.962 227.883 315.007C223.98 311.099 223.983 304.768 227.891 300.865L279.883 248.926C283.79 245.022 290.122 245.025 294.025 248.932C297.928 252.84 297.925 259.171 294.018 263.074L242.025 315.013C240.073 316.964 237.515 317.939 234.958 317.939Z"/>
<path d="M311.08 230.091L300.996 230.087C295.473 230.085 290.998 225.605 291 220.083C291.001 214.562 295.479 210.087 301 210.087H301.003L311.035 210.091C324.249 209.947 336.62 204.705 345.874 195.325C355.144 185.927 360.25 173.431 360.25 160.138C360.25 132.572 337.756 110.146 310.108 110.146C308.847 110.146 307.462 110.231 306.53 110.296C303.876 110.489 301.257 109.6 299.253 107.847C297.25 106.095 296.028 103.616 295.858 100.961C292.965 55.8643 255.246 20.5381 209.987 20.5381C179.639 20.5381 152.114 36.0479 136.357 62.0273C134.763 64.6572 132.046 66.4072 128.992 66.7715C125.937 67.1318 122.886 66.0742 120.717 63.8936C115.496 58.6436 108.541 55.7529 101.133 55.7529C85.9063 55.7529 73.5186 68.1387 73.5186 83.3633C73.5186 87.71 74.5034 91.8731 76.4463 95.7373C77.9736 98.7744 77.853 102.38 76.1265 105.309C74.3999 108.236 71.3037 110.088 67.9067 110.222C41.0439 111.282 20.001 133.188 20.001 160.09C20.001 187.61 42.3032 210 69.7168 210H82C87.523 210 92 214.478 92 220C92 225.522 87.523 230 82 230H69.7168C31.2754 230 0.000976562 198.639 0.000976562 160.09C0.000976562 126.813 22.9893 98.9951 54.2817 91.9209C53.7739 89.123 53.5186 86.2656 53.5186 83.3633C53.5186 57.1104 74.8784 35.7529 101.133 35.7529C109.858 35.7529 118.218 38.0791 125.51 42.4395C145.494 16.0147 176.331 0.538086 209.987 0.538086C262.585 0.538086 306.921 39.2676 314.795 90.2998C351.295 92.7139 380.25 123.115 380.25 160.138C380.25 178.721 373.098 196.205 360.112 209.37C347.111 222.549 329.734 229.908 311.182 230.09C311.148 230.091 311.114 230.091 311.08 230.091Z" />
</svg>
