<svg width="351" height="301" viewBox="0 0 351 301" fill="none" xmlns="http://www.w3.org/2000/svg">
<path d="M313.708 135H61C55.4775 135 51 130.522 51 125C51 119.478 55.4775 115 61 115H313.708C322.564 115 330.047 107.392 330.047 98.3857C330.047 89.2246 322.786 81.7715 313.861 81.7715C304.979 81.7715 297.752 89.1719 297.752 98.2676C297.752 103.79 293.274 108.268 287.752 108.268C282.229 108.268 277.752 103.79 277.752 98.2676C277.752 78.1436 293.95 61.7715 313.861 61.7715C333.814 61.7715 350.047 78.1963 350.047 98.3857C350.047 118.575 333.745 135 313.708 135Z" fill="#fff"/>
<path d="M214.488 92H10C4.47754 92 0 87.5225 0 82C0 76.4775 4.47754 72 10 72H214.488C228.612 72 240.103 60.4971 240.103 46.3574C240.103 32.2188 228.747 20.7158 214.789 20.7158C200.914 20.7158 189.626 32.1914 189.626 46.2979C189.626 51.8203 185.148 56.2979 179.626 56.2979C174.104 56.2979 169.626 51.8203 169.626 46.2979C169.626 21.1641 189.886 0.71582 214.789 0.71582C239.775 0.71582 260.103 21.1904 260.103 46.3574C260.103 71.5244 239.64 92 214.488 92Z" fill="#fff"/>
<path d="M299.355 247.573C274.395 247.573 254.087 227.231 254.087 202.228C254.087 196.705 258.564 192.228 264.087 192.228C269.609 192.228 274.087 196.705 274.087 202.228C274.087 216.203 285.422 227.573 299.355 227.573C313.343 227.573 324.723 216.229 324.723 202.287C324.723 188.344 313.256 177 299.16 177H30C24.4775 177 20 172.522 20 167C20 161.478 24.4775 157 30 157H299.16C324.283 157 344.723 177.315 344.723 202.287C344.723 227.258 324.371 247.573 299.355 247.573Z" fill="#fff"/>
<path d="M132.958 300.939C130.396 300.939 127.836 299.962 125.884 298.007C121.98 294.099 121.983 287.767 125.89 283.865L150.932 258.848C154.84 254.945 161.173 254.948 165.074 258.855C168.977 262.762 168.974 269.094 165.067 272.997L140.025 298.013C138.073 299.964 135.515 300.939 132.958 300.939Z" fill="#fff"/>
<path d="M45.9578 243.939C43.3962 243.939 40.8367 242.962 38.8835 241.007C34.9802 237.099 34.9832 230.768 38.8904 226.865L54.6824 211.089C58.5896 207.185 64.9207 207.188 68.824 211.095C72.7273 215.003 72.7244 221.334 68.8171 225.237L53.0251 241.013C51.073 242.964 48.5154 243.939 45.9578 243.939Z" fill="#fff"/>
<path d="M184.958 243.939C182.396 243.939 179.837 242.962 177.884 241.007C173.98 237.099 173.983 230.768 177.89 226.865L193.682 211.089C197.59 207.185 203.921 207.188 207.824 211.095C211.727 215.003 211.724 221.334 207.817 225.237L192.025 241.013C190.073 242.964 187.515 243.939 184.958 243.939Z" fill="#fff"/>
<path d="M227.958 282.103C225.394 282.103 222.831 281.123 220.877 279.164C216.977 275.253 216.986 268.922 220.896 265.022L239.889 246.082C243.8 242.184 250.13 242.19 254.031 246.102C257.931 250.013 257.922 256.344 254.012 260.244L235.019 279.184C233.067 281.13 230.513 282.103 227.958 282.103Z" fill="#fff"/>
<path d="M78.9578 280.102C76.3962 280.102 73.8357 279.125 71.8835 277.17C67.9802 273.262 67.9832 266.931 71.8904 263.028L123.883 211.089C127.79 207.185 134.123 207.188 138.024 211.095C141.927 215.003 141.925 221.334 138.017 225.237L86.0251 277.177C84.073 279.127 81.5154 280.102 78.9578 280.102Z" fill="#fff"/>
</svg>
