<svg width="351" height="248" viewBox="0 0 351 248" fill="none" xmlns="http://www.w3.org/2000/svg">
<path d="M290 136H36.918C17.2461 136 0.625977 119.062 0.625977 99.0112C0.625977 78.6152 16.8799 62.0215 36.8584 62.0215C56.8213 62.0215 73.0615 78.5063 73.0615 98.7686C73.0615 104.292 68.584 108.769 63.0615 108.769C57.5391 108.769 53.0615 104.292 53.0615 98.7686C53.0615 89.6909 45.6416 82.0215 36.8584 82.0215C28.0596 82.0215 20.626 89.8018 20.626 99.0112C20.626 108.22 28.0869 116 36.918 116H290C295.522 116 300 120.478 300 126C300 131.523 295.522 136 290 136Z" fill="#fff"/>
<path d="M341 92.9995H136.138C111.012 92.9995 90.5703 72.3564 90.5703 46.9824C90.5703 21.6084 110.919 0.964844 135.931 0.964844C160.886 0.964844 181.188 21.5254 181.188 46.7979C181.188 52.3208 176.71 56.7979 171.188 56.7979C165.665 56.7979 161.188 52.3208 161.188 46.7979C161.188 32.5537 149.857 20.9648 135.931 20.9648C121.947 20.9648 110.57 32.6362 110.57 46.9824C110.57 61.085 122.278 72.9995 136.138 72.9995H341C346.522 72.9995 351 77.4766 351 82.9995C351 88.5225 346.522 92.9995 341 92.9995Z" fill="#fff"/>
<path d="M69.3643 247.823C57.2256 247.823 45.8428 243.217 37.3115 234.853C28.6963 226.406 23.9512 215.062 23.9512 202.912C23.9512 178.147 44.3691 158 69.4658 158H319C324.522 158 329 162.478 329 168C329 173.522 324.522 178 319 178H69.4658C55.1582 178 43.9512 188.942 43.9512 202.912C43.9512 216.881 55.1143 227.823 69.3643 227.823C83.5859 227.823 94.7266 216.8 94.7266 202.728C94.7266 197.205 99.2041 192.728 104.727 192.728C110.249 192.728 114.727 197.205 114.727 202.728C114.727 227.594 94.3769 247.823 69.3643 247.823Z" fill="#fff"/>
</svg>
